<svg
  width="32"
  height="32"
  viewBox="0 0 32 32"
  fill="none"
  xmlns="http://www.w3.org/2000/svg"
>
<g style='boxShadow: "8px 8px #1E2525"'>
<circle cx="16" cy="16" r="16" fill="#C676D7" />
<g transform='translate(12, 8)'>
<path
        d="M3.042 9.32845C2.646 8.89645 2.448 8.36845 2.448 7.74445C2.448 7.26445 2.586 6.83245 2.862 6.44845C3.138 6.06445 3.438 5.77645 3.762 5.58445C4.086 5.39245 4.386 5.16445 4.662 4.90045C4.938 4.63645 5.076 4.37245 5.076 4.10845C5.076 3.80845 4.956 3.56245 4.716 3.37045C4.488 3.17845 4.14 3.08245 3.672 3.08245C2.82 3.08245 2.082 3.45445 1.458 4.19845L0 2.56045C0.996 1.39645 2.31 0.814453 3.942 0.814453C5.094 0.814453 6.006 1.07845 6.678 1.60645C7.35 2.12245 7.686 2.80645 7.686 3.65845C7.686 4.13845 7.584 4.57045 7.38 4.95445C7.176 5.33845 6.924 5.65045 6.624 5.89045C6.336 6.13045 6.042 6.35245 5.742 6.55645C5.442 6.76045 5.19 6.98245 4.986 7.22245C4.782 7.46245 4.68 7.72045 4.68 7.99645C4.68 8.30845 4.788 8.56045 5.004 8.75245L3.042 9.32845ZM4.932 12.7665C4.644 13.0545 4.302 13.1985 3.906 13.1985C3.51 13.1985 3.168 13.0545 2.88 12.7665C2.592 12.4785 2.448 12.1365 2.448 11.7405C2.448 11.3445 2.592 11.0025 2.88 10.7145C3.168 10.4265 3.51 10.2825 3.906 10.2825C4.302 10.2825 4.644 10.4265 4.932 10.7145C5.22 11.0025 5.364 11.3445 5.364 11.7405C5.364 12.1365 5.22 12.4785 4.932 12.7665Z"
        fill="white"
      />
</g>
</g>
</svg>
