<svg width="73" height="93" viewBox="0 0 73 93" fill="none" xmlns="http://www.w3.org/2000/svg">
<path opacity="0.6" d="M24.7739 9.6416H64.2402C66.4609 9.6416 68.5906 10.5238 70.1608 12.094C71.7311 13.6642 72.6132 15.7939 72.6132 18.0146V57.4824C72.6132 58.5817 72.3967 59.6703 71.976 60.6859C71.5553 61.7015 70.9387 62.6243 70.1614 63.4016C69.3841 64.179 68.4612 64.7956 67.4456 65.2163C66.43 65.637 65.3414 65.8535 64.2421 65.8535H24.7754C22.5549 65.8535 20.4253 64.9714 18.8551 63.4012C17.2849 61.831 16.4028 59.7014 16.4028 57.4809V18.0127C16.4028 16.9134 16.6194 15.8248 17.04 14.8092C17.4607 13.7936 18.0773 12.8708 18.8547 12.0934C19.632 11.3161 20.5548 10.6995 21.5704 10.2788C22.5861 9.85812 23.6746 9.6416 24.7739 9.6416Z" fill="#C676D7"/>
<path opacity="0.81" d="M72.6387 79.0947C72.6386 78.7911 72.5787 78.4906 72.4625 78.2102C72.3463 77.9298 72.1759 77.6751 71.9612 77.4605C71.7465 77.246 71.4917 77.0758 71.2112 76.9598C70.9308 76.8437 70.6302 76.7841 70.3267 76.7842H59.4155C58.8022 76.7839 58.2139 77.0271 57.7799 77.4604C57.3458 77.8936 57.1015 78.4814 57.1006 79.0947V90.0068C57.1014 90.6204 57.3455 91.2086 57.7795 91.6423C58.2135 92.076 58.8019 92.3198 59.4155 92.3203H70.3267C70.94 92.3198 71.528 92.0759 71.9616 91.6421C72.3951 91.2083 72.6387 90.6201 72.6387 90.0068V79.0947Z" fill="#C676D7"/>
<path opacity="0.81" d="M7.26315 0H13.0527C13.3773 0 13.6885 0.128898 13.918 0.358368C14.1474 0.587837 14.2764 0.899083 14.2764 1.2236V7.00879C14.2764 7.16999 14.2446 7.32962 14.1829 7.47855C14.1212 7.62747 14.0308 7.76279 13.9168 7.87677C13.8028 7.99075 13.6675 8.08117 13.5186 8.14285C13.3697 8.20454 13.21 8.2363 13.0489 8.2363H7.26365C6.939 8.2363 6.62764 8.10734 6.39808 7.87778C6.16852 7.64821 6.03955 7.33686 6.03955 7.01221V1.2236C6.03955 0.899083 6.16846 0.587837 6.39793 0.358368C6.6274 0.128898 6.93863 0 7.26315 0Z" fill="#C676D7"/>
<path opacity="0.8" d="M6.7442 36.9609H38.5513C40.3397 36.9609 42.0549 37.6714 43.3195 38.936C44.5841 40.2006 45.2945 41.9157 45.2945 43.7041V75.5107C45.2945 77.3002 44.5836 79.0163 43.3183 80.2816C42.053 81.547 40.3368 82.2578 38.5474 82.2578H6.7442C4.95553 82.2578 3.24012 81.5473 1.97533 80.2825C0.710551 79.0177 0 77.3023 0 75.5136V43.7051C0 41.9165 0.710551 40.201 1.97533 38.9362C3.24012 37.6715 4.95553 36.9609 6.7442 36.9609Z" fill="#C676D7"/>
</svg>
